<mxfile host="app.diagrams.net" agent="Mozilla/5.0 (Windows NT 10.0; Win64; x64) AppleWebKit/537.36 (KHTML, like Gecko) Chrome/136.0.0.0 Safari/537.36" version="27.1.1">
  <diagram id="C5RBs43oDa-KdzZeNtuy" name="Page-1">
    <mxGraphModel dx="2037" dy="1110" grid="1" gridSize="10" guides="1" tooltips="1" connect="1" arrows="1" fold="1" page="1" pageScale="1" pageWidth="827" pageHeight="1169" math="0" shadow="0">
      <root>
        <mxCell id="WIyWlLk6GJQsqaUBKTNV-0" />
        <mxCell id="WIyWlLk6GJQsqaUBKTNV-1" parent="WIyWlLk6GJQsqaUBKTNV-0" />
        <mxCell id="5Iedz3GvJHR2ocSmDX6X-0" value="personnel" style="swimlane;fontStyle=2;align=center;verticalAlign=top;childLayout=stackLayout;horizontal=1;startSize=26;horizontalStack=0;resizeParent=1;resizeLast=0;collapsible=1;marginBottom=0;rounded=0;shadow=0;strokeWidth=1;" vertex="1" parent="WIyWlLk6GJQsqaUBKTNV-1">
          <mxGeometry x="1240" y="370" width="230" height="674" as="geometry">
            <mxRectangle x="230" y="140" width="160" height="26" as="alternateBounds" />
          </mxGeometry>
        </mxCell>
        <mxCell id="5Iedz3GvJHR2ocSmDX6X-1" value="  + String _id&#xa;  + String matricule&#xa;  + String nom&#xa;  + String prenom&#xa;  + String email&#xa;  + String motDePasse&#xa;  + String code_soc&#xa;  + String confirmationMotDePasse&#xa;  + String date_naiss&#xa;  + String telephone&#xa;  + String CIN&#xa;  + String sexe&#xa;  + int nbr_enfants&#xa;  + String situation&#xa;  + String date_embauche&#xa;  + boolean active&#xa;  + String role&#xa;  + int failedLoginAttempts&#xa;  + boolean accountLocked&#xa;  + String lockReason&#xa;  + Date lockTime&#xa;  &#xa;" style="text;align=left;verticalAlign=top;spacingLeft=4;spacingRight=4;overflow=hidden;rotatable=0;points=[[0,0.5],[1,0.5]];portConstraint=eastwest;rounded=0;shadow=0;html=0;strokeWidth=1;fontSize=14;fontStyle=0" vertex="1" parent="5Iedz3GvJHR2ocSmDX6X-0">
          <mxGeometry y="26" width="230" height="394" as="geometry" />
        </mxCell>
        <mxCell id="5Iedz3GvJHR2ocSmDX6X-2" value="" style="line;html=1;strokeWidth=1;align=left;verticalAlign=middle;spacingTop=-1;spacingLeft=3;spacingRight=3;rotatable=0;labelPosition=right;points=[];portConstraint=eastwest;" vertex="1" parent="5Iedz3GvJHR2ocSmDX6X-0">
          <mxGeometry y="420" width="230" height="8" as="geometry" />
        </mxCell>
        <mxCell id="5Iedz3GvJHR2ocSmDX6X-3" value="+S&#39;authentifier()" style="text;align=left;verticalAlign=top;spacingLeft=4;spacingRight=4;overflow=hidden;rotatable=0;points=[[0,0.5],[1,0.5]];portConstraint=eastwest;" vertex="1" parent="5Iedz3GvJHR2ocSmDX6X-0">
          <mxGeometry y="428" width="230" height="26" as="geometry" />
        </mxCell>
        <mxCell id="5Iedz3GvJHR2ocSmDX6X-13" value="Succursale_Société" style="swimlane;fontStyle=1;align=center;verticalAlign=top;childLayout=stackLayout;horizontal=1;startSize=26;horizontalStack=0;resizeParent=1;resizeParentMax=0;resizeLast=0;collapsible=1;marginBottom=0;whiteSpace=wrap;html=1;" vertex="1" parent="WIyWlLk6GJQsqaUBKTNV-1">
          <mxGeometry x="380" y="600" width="180" height="192" as="geometry" />
        </mxCell>
        <mxCell id="5Iedz3GvJHR2ocSmDX6X-14" value="&lt;div&gt;&lt;font style=&quot;font-size: 14px;&quot;&gt;&amp;nbsp; + String _id&lt;/font&gt;&lt;/div&gt;&lt;div&gt;&lt;font style=&quot;font-size: 14px;&quot;&gt;&amp;nbsp; + String societeName&lt;/font&gt;&lt;/div&gt;&lt;div&gt;&lt;font style=&quot;font-size: 14px;&quot;&gt;&amp;nbsp; + String societeCodeSoc&lt;/font&gt;&lt;/div&gt;&lt;div&gt;&lt;font style=&quot;font-size: 14px;&quot;&gt;&amp;nbsp; + String emplacement&lt;/font&gt;&lt;/div&gt;" style="text;strokeColor=none;fillColor=none;align=left;verticalAlign=top;spacingLeft=4;spacingRight=4;overflow=hidden;rotatable=0;points=[[0,0.5],[1,0.5]];portConstraint=eastwest;whiteSpace=wrap;html=1;" vertex="1" parent="5Iedz3GvJHR2ocSmDX6X-13">
          <mxGeometry y="26" width="180" height="74" as="geometry" />
        </mxCell>
        <mxCell id="5Iedz3GvJHR2ocSmDX6X-15" value="" style="line;strokeWidth=1;fillColor=none;align=left;verticalAlign=middle;spacingTop=-1;spacingLeft=3;spacingRight=3;rotatable=0;labelPosition=right;points=[];portConstraint=eastwest;strokeColor=inherit;" vertex="1" parent="5Iedz3GvJHR2ocSmDX6X-13">
          <mxGeometry y="100" width="180" height="8" as="geometry" />
        </mxCell>
        <mxCell id="5Iedz3GvJHR2ocSmDX6X-16" value="+AjouterSociete()" style="text;strokeColor=none;fillColor=none;align=left;verticalAlign=top;spacingLeft=4;spacingRight=4;overflow=hidden;rotatable=0;points=[[0,0.5],[1,0.5]];portConstraint=eastwest;whiteSpace=wrap;html=1;" vertex="1" parent="5Iedz3GvJHR2ocSmDX6X-13">
          <mxGeometry y="108" width="180" height="28" as="geometry" />
        </mxCell>
        <mxCell id="5Iedz3GvJHR2ocSmDX6X-17" value="+ModifierSociete()" style="text;strokeColor=none;fillColor=none;align=left;verticalAlign=top;spacingLeft=4;spacingRight=4;overflow=hidden;rotatable=0;points=[[0,0.5],[1,0.5]];portConstraint=eastwest;whiteSpace=wrap;html=1;" vertex="1" parent="5Iedz3GvJHR2ocSmDX6X-13">
          <mxGeometry y="136" width="180" height="28" as="geometry" />
        </mxCell>
        <mxCell id="5Iedz3GvJHR2ocSmDX6X-18" value="+SupprimerSociete()" style="text;strokeColor=none;fillColor=none;align=left;verticalAlign=top;spacingLeft=4;spacingRight=4;overflow=hidden;rotatable=0;points=[[0,0.5],[1,0.5]];portConstraint=eastwest;whiteSpace=wrap;html=1;" vertex="1" parent="5Iedz3GvJHR2ocSmDX6X-13">
          <mxGeometry y="164" width="180" height="28" as="geometry" />
        </mxCell>
        <mxCell id="5Iedz3GvJHR2ocSmDX6X-19" value="Candidat" style="swimlane;fontStyle=1;align=center;verticalAlign=top;childLayout=stackLayout;horizontal=1;startSize=26;horizontalStack=0;resizeParent=1;resizeParentMax=0;resizeLast=0;collapsible=1;marginBottom=0;whiteSpace=wrap;html=1;" vertex="1" parent="WIyWlLk6GJQsqaUBKTNV-1">
          <mxGeometry x="923" y="928.83" width="200" height="264" as="geometry">
            <mxRectangle x="-330" y="546" width="140" height="30" as="alternateBounds" />
          </mxGeometry>
        </mxCell>
        <mxCell id="5Iedz3GvJHR2ocSmDX6X-20" value="&lt;div&gt;&amp;nbsp; + String _id&lt;/div&gt;&lt;div&gt;&amp;nbsp; + String nom&lt;/div&gt;&lt;div&gt;&amp;nbsp; + String prenom&lt;/div&gt;&lt;div&gt;&amp;nbsp; + int age&lt;/div&gt;&lt;div&gt;&amp;nbsp; + String email&lt;/div&gt;&lt;div&gt;&amp;nbsp; + String numTel&lt;/div&gt;&lt;div&gt;&amp;nbsp; + String cvFilePath&lt;/div&gt;&lt;div&gt;&amp;nbsp; + List&amp;lt;String&amp;gt; skills&lt;/div&gt;&lt;div&gt;&amp;nbsp; + double score&lt;/div&gt;&lt;div&gt;&amp;nbsp; + boolean accepted&lt;/div&gt;&lt;div&gt;&amp;nbsp; + List&amp;lt;Candidature&amp;gt; candidatures&lt;/div&gt;" style="text;strokeColor=none;fillColor=none;align=left;verticalAlign=top;spacingLeft=4;spacingRight=4;overflow=hidden;rotatable=0;points=[[0,0.5],[1,0.5]];portConstraint=eastwest;whiteSpace=wrap;html=1;" vertex="1" parent="5Iedz3GvJHR2ocSmDX6X-19">
          <mxGeometry y="26" width="200" height="174" as="geometry" />
        </mxCell>
        <mxCell id="5Iedz3GvJHR2ocSmDX6X-21" value="" style="line;strokeWidth=1;fillColor=none;align=left;verticalAlign=middle;spacingTop=-1;spacingLeft=3;spacingRight=3;rotatable=0;labelPosition=right;points=[];portConstraint=eastwest;strokeColor=inherit;" vertex="1" parent="5Iedz3GvJHR2ocSmDX6X-19">
          <mxGeometry y="200" width="200" height="8" as="geometry" />
        </mxCell>
        <mxCell id="5Iedz3GvJHR2ocSmDX6X-22" value="+Postuler()" style="text;strokeColor=none;fillColor=none;align=left;verticalAlign=top;spacingLeft=4;spacingRight=4;overflow=hidden;rotatable=0;points=[[0,0.5],[1,0.5]];portConstraint=eastwest;whiteSpace=wrap;html=1;" vertex="1" parent="5Iedz3GvJHR2ocSmDX6X-19">
          <mxGeometry y="208" width="200" height="26" as="geometry" />
        </mxCell>
        <mxCell id="5Iedz3GvJHR2ocSmDX6X-23" value="+RecevoirNotiticationEmail()" style="text;strokeColor=none;fillColor=none;align=left;verticalAlign=top;spacingLeft=4;spacingRight=4;overflow=hidden;rotatable=0;points=[[0,0.5],[1,0.5]];portConstraint=eastwest;whiteSpace=wrap;html=1;" vertex="1" parent="5Iedz3GvJHR2ocSmDX6X-19">
          <mxGeometry y="234" width="200" height="30" as="geometry" />
        </mxCell>
        <mxCell id="5Iedz3GvJHR2ocSmDX6X-24" value="Offre" style="swimlane;fontStyle=1;align=center;verticalAlign=top;childLayout=stackLayout;horizontal=1;startSize=26;horizontalStack=0;resizeParent=1;resizeParentMax=0;resizeLast=0;collapsible=1;marginBottom=0;whiteSpace=wrap;html=1;" vertex="1" parent="WIyWlLk6GJQsqaUBKTNV-1">
          <mxGeometry x="682" y="760" width="180" height="224" as="geometry">
            <mxRectangle x="-330" y="546" width="140" height="30" as="alternateBounds" />
          </mxGeometry>
        </mxCell>
        <mxCell id="5Iedz3GvJHR2ocSmDX6X-25" value="&lt;div&gt;&amp;nbsp; + String _id&lt;/div&gt;&lt;div&gt;&amp;nbsp; + Date dateAjoutPostulation&lt;/div&gt;&lt;div&gt;&lt;span style=&quot;background-color: transparent; color: light-dark(rgb(0, 0, 0), rgb(255, 255, 255));&quot;&gt;&amp;nbsp; + String description&lt;/span&gt;&lt;/div&gt;&lt;div&gt;&amp;nbsp; + String service&lt;/div&gt;&lt;div&gt;&amp;nbsp; + int anneeExperiences&lt;/div&gt;&lt;div&gt;&amp;nbsp; + String exigences&lt;/div&gt;&lt;div&gt;&amp;nbsp; + Map&amp;lt;String,Integer&amp;gt; skillsWithPercentage&lt;/div&gt;" style="text;strokeColor=none;fillColor=none;align=left;verticalAlign=top;spacingLeft=4;spacingRight=4;overflow=hidden;rotatable=0;points=[[0,0.5],[1,0.5]];portConstraint=eastwest;whiteSpace=wrap;html=1;" vertex="1" parent="5Iedz3GvJHR2ocSmDX6X-24">
          <mxGeometry y="26" width="180" height="164" as="geometry" />
        </mxCell>
        <mxCell id="5Iedz3GvJHR2ocSmDX6X-26" value="" style="line;strokeWidth=1;fillColor=none;align=left;verticalAlign=middle;spacingTop=-1;spacingLeft=3;spacingRight=3;rotatable=0;labelPosition=right;points=[];portConstraint=eastwest;strokeColor=inherit;" vertex="1" parent="5Iedz3GvJHR2ocSmDX6X-24">
          <mxGeometry y="190" width="180" height="8" as="geometry" />
        </mxCell>
        <mxCell id="5Iedz3GvJHR2ocSmDX6X-27" value="+AjouCandidature()" style="text;strokeColor=none;fillColor=none;align=left;verticalAlign=top;spacingLeft=4;spacingRight=4;overflow=hidden;rotatable=0;points=[[0,0.5],[1,0.5]];portConstraint=eastwest;whiteSpace=wrap;html=1;" vertex="1" parent="5Iedz3GvJHR2ocSmDX6X-24">
          <mxGeometry y="198" width="180" height="26" as="geometry" />
        </mxCell>
        <mxCell id="5Iedz3GvJHR2ocSmDX6X-29" value="" style="endArrow=diamondThin;endFill=1;endSize=24;html=1;rounded=0;exitX=0.434;exitY=1.003;exitDx=0;exitDy=0;exitPerimeter=0;entryX=0.831;entryY=0.028;entryDx=0;entryDy=0;entryPerimeter=0;" edge="1" parent="WIyWlLk6GJQsqaUBKTNV-1" source="5Iedz3GvJHR2ocSmDX6X-35" target="5Iedz3GvJHR2ocSmDX6X-13">
          <mxGeometry width="160" relative="1" as="geometry">
            <mxPoint x="403" y="507.00000000000045" as="sourcePoint" />
            <mxPoint x="713" y="570" as="targetPoint" />
          </mxGeometry>
        </mxCell>
        <mxCell id="5Iedz3GvJHR2ocSmDX6X-30" value="appartient à" style="edgeLabel;html=1;align=center;verticalAlign=middle;resizable=0;points=[];" vertex="1" connectable="0" parent="5Iedz3GvJHR2ocSmDX6X-29">
          <mxGeometry x="-0.1295" y="-3" relative="1" as="geometry">
            <mxPoint as="offset" />
          </mxGeometry>
        </mxCell>
        <mxCell id="5Iedz3GvJHR2ocSmDX6X-31" value="Service" style="swimlane;fontStyle=1;align=center;verticalAlign=top;childLayout=stackLayout;horizontal=1;startSize=26;horizontalStack=0;resizeParent=1;resizeParentMax=0;resizeLast=0;collapsible=1;marginBottom=0;whiteSpace=wrap;html=1;" vertex="1" parent="WIyWlLk6GJQsqaUBKTNV-1">
          <mxGeometry x="690" y="190" width="180" height="234" as="geometry" />
        </mxCell>
        <mxCell id="5Iedz3GvJHR2ocSmDX6X-32" value="&lt;div&gt;&lt;span style=&quot;font-size: 14px;&quot;&gt;&amp;nbsp; + String _id&lt;/span&gt;&lt;/div&gt;&lt;div&gt;&lt;span style=&quot;font-size: 14px;&quot;&gt;&amp;nbsp; + String serviceName&lt;/span&gt;&lt;/div&gt;&lt;div&gt;&lt;span style=&quot;font-size: 14px;&quot;&gt;&amp;nbsp; + Personnel chef1&lt;/span&gt;&lt;/div&gt;&lt;div&gt;&lt;span style=&quot;font-size: 14px;&quot;&gt;&amp;nbsp; + int poid1&lt;/span&gt;&lt;/div&gt;&lt;div&gt;&lt;span style=&quot;font-size: 14px;&quot;&gt;&amp;nbsp; + Personnel chef2&lt;/span&gt;&lt;/div&gt;&lt;div&gt;&lt;span style=&quot;font-size: 14px;&quot;&gt;&amp;nbsp; + int poid2&lt;/span&gt;&lt;/div&gt;&lt;div&gt;&lt;span style=&quot;font-size: 14px;&quot;&gt;&amp;nbsp; + Personnel chef3&lt;/span&gt;&lt;/div&gt;&lt;div&gt;&lt;span style=&quot;font-size: 14px;&quot;&gt;&amp;nbsp; + int poid3&lt;/span&gt;&lt;/div&gt;" style="text;strokeColor=none;fillColor=none;align=left;verticalAlign=top;spacingLeft=4;spacingRight=4;overflow=hidden;rotatable=0;points=[[0,0.5],[1,0.5]];portConstraint=eastwest;whiteSpace=wrap;html=1;" vertex="1" parent="5Iedz3GvJHR2ocSmDX6X-31">
          <mxGeometry y="26" width="180" height="144" as="geometry" />
        </mxCell>
        <mxCell id="5Iedz3GvJHR2ocSmDX6X-33" value="" style="line;strokeWidth=1;fillColor=none;align=left;verticalAlign=middle;spacingTop=-1;spacingLeft=3;spacingRight=3;rotatable=0;labelPosition=right;points=[];portConstraint=eastwest;strokeColor=inherit;" vertex="1" parent="5Iedz3GvJHR2ocSmDX6X-31">
          <mxGeometry y="170" width="180" height="8" as="geometry" />
        </mxCell>
        <mxCell id="5Iedz3GvJHR2ocSmDX6X-34" value="+Ajouter&lt;span style=&quot;text-align: center;&quot;&gt;Service&lt;/span&gt;()" style="text;strokeColor=none;fillColor=none;align=left;verticalAlign=top;spacingLeft=4;spacingRight=4;overflow=hidden;rotatable=0;points=[[0,0.5],[1,0.5]];portConstraint=eastwest;whiteSpace=wrap;html=1;" vertex="1" parent="5Iedz3GvJHR2ocSmDX6X-31">
          <mxGeometry y="178" width="180" height="28" as="geometry" />
        </mxCell>
        <mxCell id="5Iedz3GvJHR2ocSmDX6X-35" value="+Supprimer&lt;span style=&quot;text-align: center;&quot;&gt;Service&lt;/span&gt;()" style="text;strokeColor=none;fillColor=none;align=left;verticalAlign=top;spacingLeft=4;spacingRight=4;overflow=hidden;rotatable=0;points=[[0,0.5],[1,0.5]];portConstraint=eastwest;whiteSpace=wrap;html=1;" vertex="1" parent="5Iedz3GvJHR2ocSmDX6X-31">
          <mxGeometry y="206" width="180" height="28" as="geometry" />
        </mxCell>
        <mxCell id="5Iedz3GvJHR2ocSmDX6X-38" value="" style="endArrow=none;endFill=1;endSize=24;html=1;rounded=0;entryX=0.998;entryY=0.578;entryDx=0;entryDy=0;entryPerimeter=0;exitX=0.5;exitY=0;exitDx=0;exitDy=0;startFill=0;" edge="1" parent="WIyWlLk6GJQsqaUBKTNV-1" source="5Iedz3GvJHR2ocSmDX6X-19" target="5Iedz3GvJHR2ocSmDX6X-25">
          <mxGeometry width="160" relative="1" as="geometry">
            <mxPoint x="732" y="1080.49" as="sourcePoint" />
            <mxPoint x="769" y="1198.49" as="targetPoint" />
            <Array as="points">
              <mxPoint x="1023" y="881" />
            </Array>
          </mxGeometry>
        </mxCell>
        <mxCell id="5Iedz3GvJHR2ocSmDX6X-39" value="postule à" style="edgeLabel;html=1;align=center;verticalAlign=middle;resizable=0;points=[];" vertex="1" connectable="0" parent="5Iedz3GvJHR2ocSmDX6X-38">
          <mxGeometry x="-0.1295" y="-3" relative="1" as="geometry">
            <mxPoint as="offset" />
          </mxGeometry>
        </mxCell>
        <mxCell id="5Iedz3GvJHR2ocSmDX6X-40" value="*" style="edgeLabel;html=1;align=center;verticalAlign=middle;resizable=0;points=[];" vertex="1" connectable="0" parent="5Iedz3GvJHR2ocSmDX6X-38">
          <mxGeometry x="0.8576" relative="1" as="geometry">
            <mxPoint as="offset" />
          </mxGeometry>
        </mxCell>
        <mxCell id="5Iedz3GvJHR2ocSmDX6X-41" value="*" style="edgeLabel;html=1;align=center;verticalAlign=middle;resizable=0;points=[];" vertex="1" connectable="0" parent="5Iedz3GvJHR2ocSmDX6X-38">
          <mxGeometry x="-0.8757" y="2" relative="1" as="geometry">
            <mxPoint as="offset" />
          </mxGeometry>
        </mxCell>
        <mxCell id="5Iedz3GvJHR2ocSmDX6X-44" value="" style="endArrow=none;html=1;rounded=0;exitX=0.5;exitY=0;exitDx=0;exitDy=0;entryX=0.447;entryY=1.031;entryDx=0;entryDy=0;entryPerimeter=0;" edge="1" parent="WIyWlLk6GJQsqaUBKTNV-1" source="5Iedz3GvJHR2ocSmDX6X-24" target="5Iedz3GvJHR2ocSmDX6X-35">
          <mxGeometry width="50" height="50" relative="1" as="geometry">
            <mxPoint x="760" y="877" as="sourcePoint" />
            <mxPoint x="761" y="540" as="targetPoint" />
          </mxGeometry>
        </mxCell>
        <mxCell id="5Iedz3GvJHR2ocSmDX6X-45" value="*" style="edgeLabel;html=1;align=center;verticalAlign=middle;resizable=0;points=[];" vertex="1" connectable="0" parent="5Iedz3GvJHR2ocSmDX6X-44">
          <mxGeometry x="-0.8791" y="1" relative="1" as="geometry">
            <mxPoint as="offset" />
          </mxGeometry>
        </mxCell>
        <mxCell id="5Iedz3GvJHR2ocSmDX6X-46" value="1" style="edgeLabel;html=1;align=center;verticalAlign=middle;resizable=0;points=[];" vertex="1" connectable="0" parent="5Iedz3GvJHR2ocSmDX6X-44">
          <mxGeometry x="0.8605" y="-1" relative="1" as="geometry">
            <mxPoint as="offset" />
          </mxGeometry>
        </mxCell>
        <mxCell id="5Iedz3GvJHR2ocSmDX6X-47" value="" style="endArrow=none;html=1;rounded=0;exitX=0.81;exitY=-0.002;exitDx=0;exitDy=0;entryX=0.004;entryY=0.315;entryDx=0;entryDy=0;entryPerimeter=0;exitPerimeter=0;" edge="1" parent="WIyWlLk6GJQsqaUBKTNV-1" source="5Iedz3GvJHR2ocSmDX6X-24" target="5Iedz3GvJHR2ocSmDX6X-1">
          <mxGeometry width="50" height="50" relative="1" as="geometry">
            <mxPoint x="1052" y="805" as="sourcePoint" />
            <mxPoint x="1050" y="470" as="targetPoint" />
            <Array as="points">
              <mxPoint x="830" y="520" />
            </Array>
          </mxGeometry>
        </mxCell>
        <mxCell id="5Iedz3GvJHR2ocSmDX6X-49" value="1" style="edgeLabel;html=1;align=center;verticalAlign=middle;resizable=0;points=[];" vertex="1" connectable="0" parent="5Iedz3GvJHR2ocSmDX6X-47">
          <mxGeometry x="0.8605" y="-1" relative="1" as="geometry">
            <mxPoint as="offset" />
          </mxGeometry>
        </mxCell>
        <mxCell id="5Iedz3GvJHR2ocSmDX6X-50" value="1..*" style="edgeLabel;html=1;align=center;verticalAlign=middle;resizable=0;points=[];" vertex="1" connectable="0" parent="5Iedz3GvJHR2ocSmDX6X-47">
          <mxGeometry x="-0.9561" relative="1" as="geometry">
            <mxPoint as="offset" />
          </mxGeometry>
        </mxCell>
        <mxCell id="5Iedz3GvJHR2ocSmDX6X-51" value="Ajoute" style="text;html=1;align=center;verticalAlign=middle;resizable=0;points=[];autosize=1;strokeColor=none;fillColor=none;" vertex="1" parent="WIyWlLk6GJQsqaUBKTNV-1">
          <mxGeometry x="960" y="498" width="60" height="30" as="geometry" />
        </mxCell>
      </root>
    </mxGraphModel>
  </diagram>
</mxfile>
